<svg xmlns="http://www.w3.org/2000/svg" viewBox="0 0 288 160" width="288" height="160" role="img" aria-labelledby="title desc">
  <title id="title">Level Up Your Agent</title>
  <desc id="desc">A colorful RateLoop orbit mark with the words Level Up Your Agent.</desc>
  <defs>
    <linearGradient id="loop-gradient" x1="60" y1="30" x2="228" y2="126" gradientUnits="userSpaceOnUse">
      <stop offset="0" stop-color="#359EEE" />
      <stop offset="0.28" stop-color="#03CEA4" />
      <stop offset="0.52" stop-color="#FFC43D" />
      <stop offset="0.76" stop-color="#FF7A45" />
      <stop offset="1" stop-color="#EF476F" />
    </linearGradient>
    <linearGradient id="text-gradient" x1="38" y1="126" x2="250" y2="126" gradientUnits="userSpaceOnUse">
      <stop offset="0" stop-color="#FFFFFF" />
      <stop offset="0.55" stop-color="#F4F8FF" />
      <stop offset="1" stop-color="#DDE7F5" />
    </linearGradient>
    <filter id="soft-glow" x="-30%" y="-30%" width="160%" height="160%">
      <feGaussianBlur in="SourceGraphic" stdDeviation="1.8" result="blur" />
      <feColorMatrix
        in="blur"
        result="glow"
        type="matrix"
        values="1 0 0 0 0
                0 1 0 0 0
                0 0 1 0 0
                0 0 0 0.42 0"
      />
      <feMerge>
        <feMergeNode in="glow" />
        <feMergeNode in="SourceGraphic" />
      </feMerge>
    </filter>
  </defs>

  <g
    fill="none"
    filter="url(#soft-glow)"
    opacity="0.96"
    stroke="url(#loop-gradient)"
    stroke-linecap="round"
    transform="translate(0 -8)"
  >
    <ellipse cx="144" cy="69" rx="64" ry="38" stroke-width="2.4" transform="rotate(0 144 69)" />
    <ellipse cx="144" cy="69" rx="64" ry="38" stroke-width="2.1" transform="rotate(12 144 69)" opacity="0.84" />
    <ellipse cx="144" cy="69" rx="64" ry="38" stroke-width="1.9" transform="rotate(24 144 69)" opacity="0.78" />
    <ellipse cx="144" cy="69" rx="64" ry="38" stroke-width="1.8" transform="rotate(36 144 69)" opacity="0.72" />
    <ellipse cx="144" cy="69" rx="64" ry="38" stroke-width="1.7" transform="rotate(48 144 69)" opacity="0.66" />
    <ellipse cx="144" cy="69" rx="64" ry="38" stroke-width="1.6" transform="rotate(60 144 69)" opacity="0.6" />
    <ellipse cx="144" cy="69" rx="64" ry="38" stroke-width="1.5" transform="rotate(72 144 69)" opacity="0.56" />
    <ellipse cx="144" cy="69" rx="64" ry="38" stroke-width="1.4" transform="rotate(84 144 69)" opacity="0.52" />
    <ellipse cx="144" cy="69" rx="64" ry="38" stroke-width="1.4" transform="rotate(96 144 69)" opacity="0.5" />
    <ellipse cx="144" cy="69" rx="64" ry="38" stroke-width="1.5" transform="rotate(108 144 69)" opacity="0.54" />
    <ellipse cx="144" cy="69" rx="64" ry="38" stroke-width="1.7" transform="rotate(120 144 69)" opacity="0.62" />
    <ellipse cx="144" cy="69" rx="64" ry="38" stroke-width="2" transform="rotate(132 144 69)" opacity="0.72" />
  </g>

  <g transform="translate(0 -8)">
  <circle cx="144" cy="69" r="37" fill="#050505" opacity="0.94" />
  <path
    d="M144 29.5A39.5 39.5 0 1 1 116.1 97"
    fill="none"
    stroke="url(#loop-gradient)"
    stroke-linecap="round"
    stroke-width="7.5"
  />
  </g>
  <text
    fill="url(#text-gradient)"
    font-family="Inter, ui-sans-serif, system-ui, -apple-system, BlinkMacSystemFont, 'Segoe UI', sans-serif"
    font-size="25"
    font-weight="700"
    letter-spacing="0"
    text-anchor="middle"
    x="144"
    y="137"
  >
    Level Up Your Agent
  </text>
</svg>
