<svg xmlns="http://www.w3.org/2000/svg" width="1600" height="1120" viewBox="0 0 1600 1120" role="img" aria-labelledby="title desc">
  <title id="title">RateLoop logo-ring avatar mockups</title>
  <desc id="desc">Avatar mockups where a logo-like continuous circle fills by voter accuracy and the multicolor ring palette is derived from the connected wallet address.</desc>

  <defs>
    <style>
      .canvas {
        fill: #080a0f;
      }

      .panel {
        fill: #10131a;
        stroke: #252c39;
        stroke-width: 1;
      }

      .panel-soft {
        fill: #0d1017;
        stroke: #222836;
        stroke-width: 1;
      }

      .title {
        fill: #f7f3ee;
        font-family: Arial, Helvetica, sans-serif;
        font-size: 42px;
        font-weight: 720;
        letter-spacing: 0;
      }

      .subtitle,
      .body,
      .column-label,
      .wallet,
      .tiny {
        font-family: Arial, Helvetica, sans-serif;
        letter-spacing: 0;
      }

      .subtitle {
        fill: #aeb7c6;
        font-size: 19px;
      }

      .body {
        fill: #9da7b8;
        font-size: 16px;
      }

      .column-label {
        fill: #dce4ef;
        font-size: 15px;
        font-weight: 700;
        text-anchor: middle;
      }

      .wallet {
        fill: #f6f1eb;
        font-size: 18px;
        font-weight: 700;
      }

      .tiny {
        fill: #8f99aa;
        font-size: 13px;
      }

      .accuracy-label {
        fill: #dbe3ee;
        font-family: Arial, Helvetica, sans-serif;
        font-size: 16px;
        font-weight: 700;
        text-anchor: middle;
      }

      .accuracy-note {
        fill: #8390a3;
        font-family: Arial, Helvetica, sans-serif;
        font-size: 12px;
        text-anchor: middle;
      }

      .avatar-hit {
        fill: #080a0f;
      }

      .avatar-outer {
        fill: none;
        stroke: #ffffff;
        stroke-opacity: 0.07;
        stroke-width: 1.25;
      }

      .avatar-rail {
        fill: none;
        stroke: #ffffff;
        stroke-width: 10;
        stroke-opacity: 0.08;
        stroke-linecap: round;
        stroke-linejoin: round;
      }

      .ring-active {
        fill: none;
        stroke-width: 10;
        stroke-linecap: round;
        stroke-linejoin: round;
        filter: url(#ring-glow);
      }

      .swatch {
        stroke: #ffffff;
        stroke-opacity: 0.22;
        stroke-width: 1;
      }

      .callout-line {
        stroke: #ffffff;
        stroke-opacity: 0.12;
        stroke-width: 1;
      }
    </style>

    <filter id="ring-glow" x="-35%" y="-35%" width="170%" height="170%">
      <feDropShadow dx="0" dy="0" stdDeviation="1.8" flood-color="#ffffff" flood-opacity="0.18" />
    </filter>

    <linearGradient id="wallet-f71b44-ring" x1="12" y1="14" x2="84" y2="82" gradientUnits="userSpaceOnUse">
      <stop offset="0%" stop-color="#F7CE1B" />
      <stop offset="24%" stop-color="#1BF751" />
      <stop offset="50%" stop-color="#1B27F7" />
      <stop offset="76%" stop-color="#F71BED" />
      <stop offset="100%" stop-color="#F71B44" />
    </linearGradient>

    <linearGradient id="wallet-a7b3d2-ring" x1="16" y1="82" x2="86" y2="16" gradientUnits="userSpaceOnUse">
      <stop offset="0%" stop-color="#6A8ADC" />
      <stop offset="25%" stop-color="#CF6ADC" />
      <stop offset="50%" stop-color="#DC7E6A" />
      <stop offset="75%" stop-color="#9DDC6A" />
      <stop offset="100%" stop-color="#6ADADC" />
    </linearGradient>

    <linearGradient id="wallet-d54ee7-ring" x1="10" y1="48" x2="88" y2="48" gradientUnits="userSpaceOnUse">
      <stop offset="0%" stop-color="#D54EE7" />
      <stop offset="25%" stop-color="#E7564E" />
      <stop offset="50%" stop-color="#89E74E" />
      <stop offset="75%" stop-color="#4EE7E2" />
      <stop offset="100%" stop-color="#5D4EE7" />
    </linearGradient>

    <linearGradient id="wallet-8f2039-ring" x1="84" y1="18" x2="12" y2="84" gradientUnits="userSpaceOnUse">
      <stop offset="0%" stop-color="#C82D50" />
      <stop offset="25%" stop-color="#C8BC2D" />
      <stop offset="50%" stop-color="#2DC855" />
      <stop offset="75%" stop-color="#2D57C8" />
      <stop offset="100%" stop-color="#C82DAF" />
    </linearGradient>

    <symbol id="avatar-shell" viewBox="0 0 96 96">
      <circle class="avatar-hit" cx="48" cy="48" r="45" />
      <circle class="avatar-outer" cx="48" cy="48" r="43" />
      <circle class="avatar-rail" cx="48" cy="48" r="37" pathLength="100" transform="rotate(-90 48 48)" />
    </symbol>

    <mask id="acc-0" maskUnits="userSpaceOnUse" x="0" y="0" width="96" height="96">
      <rect width="96" height="96" fill="black" />
    </mask>
    <mask id="acc-25" maskUnits="userSpaceOnUse" x="0" y="0" width="96" height="96">
      <rect width="96" height="96" fill="black" />
      <circle cx="48" cy="48" r="37" fill="none" stroke="#ffffff" stroke-width="16" pathLength="100" stroke-dasharray="25 100" stroke-linecap="round" transform="rotate(-90 48 48)" />
    </mask>
    <mask id="acc-50" maskUnits="userSpaceOnUse" x="0" y="0" width="96" height="96">
      <rect width="96" height="96" fill="black" />
      <circle cx="48" cy="48" r="37" fill="none" stroke="#ffffff" stroke-width="16" pathLength="100" stroke-dasharray="50 100" stroke-linecap="round" transform="rotate(-90 48 48)" />
    </mask>
    <mask id="acc-74" maskUnits="userSpaceOnUse" x="0" y="0" width="96" height="96">
      <rect width="96" height="96" fill="black" />
      <circle cx="48" cy="48" r="37" fill="none" stroke="#ffffff" stroke-width="16" pathLength="100" stroke-dasharray="74 100" stroke-linecap="round" transform="rotate(-90 48 48)" />
    </mask>
    <mask id="acc-100" maskUnits="userSpaceOnUse" x="0" y="0" width="96" height="96">
      <rect width="96" height="96" fill="black" />
      <circle cx="48" cy="48" r="37" fill="none" stroke="#ffffff" stroke-width="16" pathLength="100" stroke-dasharray="100 100" stroke-linecap="round" transform="rotate(-90 48 48)" />
    </mask>
  </defs>

  <rect class="canvas" width="1600" height="1120" />

  <text class="title" x="72" y="78">Logo-ring avatar mockups</text>
  <text class="subtitle" x="72" y="112">A single continuous circle, like the RateLoop logo. Accuracy controls how much of the circle is filled; wallet address controls the multicolor gradient.</text>

  <g transform="translate(72 150)">
    <rect class="panel" x="0" y="0" width="1456" height="755" rx="18" />

    <text class="column-label" x="414" y="46">0%</text>
    <text class="column-label" x="594" y="46">25%</text>
    <text class="column-label" x="774" y="46">50%</text>
    <text class="column-label" x="954" y="46">74%</text>
    <text class="column-label" x="1134" y="46">100%</text>

    <g transform="translate(0 62)">
      <line class="callout-line" x1="34" y1="0" x2="1422" y2="0" />
      <g transform="translate(36 52)">
        <text class="wallet" x="0" y="0">0xc1cd...71b44</text>
        <text class="tiny" x="0" y="27">wallet seed f71b44</text>
        <g transform="translate(0 48)">
          <rect class="swatch" x="0" y="0" width="24" height="24" rx="12" fill="#F7CE1B" />
          <rect class="swatch" x="31" y="0" width="24" height="24" rx="12" fill="#1BF751" />
          <rect class="swatch" x="62" y="0" width="24" height="24" rx="12" fill="#1B27F7" />
          <rect class="swatch" x="93" y="0" width="24" height="24" rx="12" fill="#F71BED" />
          <rect class="swatch" x="124" y="0" width="24" height="24" rx="12" fill="#F71B44" />
        </g>
      </g>

      <g transform="translate(354 10)">
        <g transform="scale(1.25)">
          <use href="#avatar-shell" />
          <g mask="url(#acc-0)">
            <circle class="ring-active" cx="48" cy="48" r="37" pathLength="100" transform="rotate(-90 48 48)" stroke="url(#wallet-f71b44-ring)" />
          </g>
        </g>
        <text class="accuracy-label" x="60" y="145">empty</text>
        <text class="accuracy-note" x="60" y="166">no wins yet</text>
      </g>

      <g transform="translate(534 10)">
        <g transform="scale(1.25)">
          <use href="#avatar-shell" />
          <g mask="url(#acc-25)">
            <circle class="ring-active" cx="48" cy="48" r="37" pathLength="100" transform="rotate(-90 48 48)" stroke="url(#wallet-f71b44-ring)" />
          </g>
        </g>
        <text class="accuracy-label" x="60" y="145">quarter</text>
        <text class="accuracy-note" x="60" y="166">low signal</text>
      </g>

      <g transform="translate(714 10)">
        <g transform="scale(1.25)">
          <use href="#avatar-shell" />
          <g mask="url(#acc-50)">
            <circle class="ring-active" cx="48" cy="48" r="37" pathLength="100" transform="rotate(-90 48 48)" stroke="url(#wallet-f71b44-ring)" />
          </g>
        </g>
        <text class="accuracy-label" x="60" y="145">half</text>
        <text class="accuracy-note" x="60" y="166">balanced</text>
      </g>

      <g transform="translate(894 10)">
        <g transform="scale(1.25)">
          <use href="#avatar-shell" />
          <g mask="url(#acc-74)">
            <circle class="ring-active" cx="48" cy="48" r="37" pathLength="100" transform="rotate(-90 48 48)" stroke="url(#wallet-f71b44-ring)" />
          </g>
        </g>
        <text class="accuracy-label" x="60" y="145">logo C</text>
        <text class="accuracy-note" x="60" y="166">strong read</text>
      </g>

      <g transform="translate(1074 10)">
        <g transform="scale(1.25)">
          <use href="#avatar-shell" />
          <g mask="url(#acc-100)">
            <circle class="ring-active" cx="48" cy="48" r="37" pathLength="100" transform="rotate(-90 48 48)" stroke="url(#wallet-f71b44-ring)" />
          </g>
        </g>
        <text class="accuracy-label" x="60" y="145">full ring</text>
        <text class="accuracy-note" x="60" y="166">perfect</text>
      </g>
    </g>

    <g transform="translate(0 240)">
      <line class="callout-line" x1="34" y1="0" x2="1422" y2="0" />
      <g transform="translate(36 52)">
        <text class="wallet" x="0" y="0">0x6d9f...7b3d2</text>
        <text class="tiny" x="0" y="27">wallet seed a7b3d2</text>
        <g transform="translate(0 48)">
          <rect class="swatch" x="0" y="0" width="24" height="24" rx="12" fill="#6A8ADC" />
          <rect class="swatch" x="31" y="0" width="24" height="24" rx="12" fill="#CF6ADC" />
          <rect class="swatch" x="62" y="0" width="24" height="24" rx="12" fill="#DC7E6A" />
          <rect class="swatch" x="93" y="0" width="24" height="24" rx="12" fill="#9DDC6A" />
          <rect class="swatch" x="124" y="0" width="24" height="24" rx="12" fill="#6ADADC" />
        </g>
      </g>

      <g transform="translate(354 10)">
        <g transform="scale(1.25)">
          <use href="#avatar-shell" />
          <g mask="url(#acc-0)">
            <circle class="ring-active" cx="48" cy="48" r="37" pathLength="100" transform="rotate(-90 48 48)" stroke="url(#wallet-a7b3d2-ring)" />
          </g>
        </g>
        <text class="accuracy-label" x="60" y="145">empty</text>
        <text class="accuracy-note" x="60" y="166">no wins yet</text>
      </g>

      <g transform="translate(534 10)">
        <g transform="scale(1.25)">
          <use href="#avatar-shell" />
          <g mask="url(#acc-25)">
            <circle class="ring-active" cx="48" cy="48" r="37" pathLength="100" transform="rotate(-90 48 48)" stroke="url(#wallet-a7b3d2-ring)" />
          </g>
        </g>
        <text class="accuracy-label" x="60" y="145">quarter</text>
        <text class="accuracy-note" x="60" y="166">low signal</text>
      </g>

      <g transform="translate(714 10)">
        <g transform="scale(1.25)">
          <use href="#avatar-shell" />
          <g mask="url(#acc-50)">
            <circle class="ring-active" cx="48" cy="48" r="37" pathLength="100" transform="rotate(-90 48 48)" stroke="url(#wallet-a7b3d2-ring)" />
          </g>
        </g>
        <text class="accuracy-label" x="60" y="145">half</text>
        <text class="accuracy-note" x="60" y="166">balanced</text>
      </g>

      <g transform="translate(894 10)">
        <g transform="scale(1.25)">
          <use href="#avatar-shell" />
          <g mask="url(#acc-74)">
            <circle class="ring-active" cx="48" cy="48" r="37" pathLength="100" transform="rotate(-90 48 48)" stroke="url(#wallet-a7b3d2-ring)" />
          </g>
        </g>
        <text class="accuracy-label" x="60" y="145">logo C</text>
        <text class="accuracy-note" x="60" y="166">strong read</text>
      </g>

      <g transform="translate(1074 10)">
        <g transform="scale(1.25)">
          <use href="#avatar-shell" />
          <g mask="url(#acc-100)">
            <circle class="ring-active" cx="48" cy="48" r="37" pathLength="100" transform="rotate(-90 48 48)" stroke="url(#wallet-a7b3d2-ring)" />
          </g>
        </g>
        <text class="accuracy-label" x="60" y="145">full ring</text>
        <text class="accuracy-note" x="60" y="166">perfect</text>
      </g>
    </g>

    <g transform="translate(0 418)">
      <line class="callout-line" x1="34" y1="0" x2="1422" y2="0" />
      <g transform="translate(36 52)">
        <text class="wallet" x="0" y="0">0x29b2...54ee7</text>
        <text class="tiny" x="0" y="27">wallet seed d54ee7</text>
        <g transform="translate(0 48)">
          <rect class="swatch" x="0" y="0" width="24" height="24" rx="12" fill="#D54EE7" />
          <rect class="swatch" x="31" y="0" width="24" height="24" rx="12" fill="#E7564E" />
          <rect class="swatch" x="62" y="0" width="24" height="24" rx="12" fill="#89E74E" />
          <rect class="swatch" x="93" y="0" width="24" height="24" rx="12" fill="#4EE7E2" />
          <rect class="swatch" x="124" y="0" width="24" height="24" rx="12" fill="#5D4EE7" />
        </g>
      </g>

      <g transform="translate(354 10)">
        <g transform="scale(1.25)">
          <use href="#avatar-shell" />
          <g mask="url(#acc-0)">
            <circle class="ring-active" cx="48" cy="48" r="37" pathLength="100" transform="rotate(-90 48 48)" stroke="url(#wallet-d54ee7-ring)" />
          </g>
        </g>
        <text class="accuracy-label" x="60" y="145">empty</text>
        <text class="accuracy-note" x="60" y="166">no wins yet</text>
      </g>

      <g transform="translate(534 10)">
        <g transform="scale(1.25)">
          <use href="#avatar-shell" />
          <g mask="url(#acc-25)">
            <circle class="ring-active" cx="48" cy="48" r="37" pathLength="100" transform="rotate(-90 48 48)" stroke="url(#wallet-d54ee7-ring)" />
          </g>
        </g>
        <text class="accuracy-label" x="60" y="145">quarter</text>
        <text class="accuracy-note" x="60" y="166">low signal</text>
      </g>

      <g transform="translate(714 10)">
        <g transform="scale(1.25)">
          <use href="#avatar-shell" />
          <g mask="url(#acc-50)">
            <circle class="ring-active" cx="48" cy="48" r="37" pathLength="100" transform="rotate(-90 48 48)" stroke="url(#wallet-d54ee7-ring)" />
          </g>
        </g>
        <text class="accuracy-label" x="60" y="145">half</text>
        <text class="accuracy-note" x="60" y="166">balanced</text>
      </g>

      <g transform="translate(894 10)">
        <g transform="scale(1.25)">
          <use href="#avatar-shell" />
          <g mask="url(#acc-74)">
            <circle class="ring-active" cx="48" cy="48" r="37" pathLength="100" transform="rotate(-90 48 48)" stroke="url(#wallet-d54ee7-ring)" />
          </g>
        </g>
        <text class="accuracy-label" x="60" y="145">logo C</text>
        <text class="accuracy-note" x="60" y="166">strong read</text>
      </g>

      <g transform="translate(1074 10)">
        <g transform="scale(1.25)">
          <use href="#avatar-shell" />
          <g mask="url(#acc-100)">
            <circle class="ring-active" cx="48" cy="48" r="37" pathLength="100" transform="rotate(-90 48 48)" stroke="url(#wallet-d54ee7-ring)" />
          </g>
        </g>
        <text class="accuracy-label" x="60" y="145">full ring</text>
        <text class="accuracy-note" x="60" y="166">perfect</text>
      </g>
    </g>

    <g transform="translate(0 596)">
      <line class="callout-line" x1="34" y1="0" x2="1422" y2="0" />
      <g transform="translate(36 52)">
        <text class="wallet" x="0" y="0">0x84f1...f2039</text>
        <text class="tiny" x="0" y="27">wallet seed 8f2039</text>
        <g transform="translate(0 48)">
          <rect class="swatch" x="0" y="0" width="24" height="24" rx="12" fill="#C82D50" />
          <rect class="swatch" x="31" y="0" width="24" height="24" rx="12" fill="#C8BC2D" />
          <rect class="swatch" x="62" y="0" width="24" height="24" rx="12" fill="#2DC855" />
          <rect class="swatch" x="93" y="0" width="24" height="24" rx="12" fill="#2D57C8" />
          <rect class="swatch" x="124" y="0" width="24" height="24" rx="12" fill="#C82DAF" />
        </g>
      </g>

      <g transform="translate(354 10)">
        <g transform="scale(1.25)">
          <use href="#avatar-shell" />
          <g mask="url(#acc-0)">
            <circle class="ring-active" cx="48" cy="48" r="37" pathLength="100" transform="rotate(-90 48 48)" stroke="url(#wallet-8f2039-ring)" />
          </g>
        </g>
        <text class="accuracy-label" x="60" y="145">empty</text>
        <text class="accuracy-note" x="60" y="166">no wins yet</text>
      </g>

      <g transform="translate(534 10)">
        <g transform="scale(1.25)">
          <use href="#avatar-shell" />
          <g mask="url(#acc-25)">
            <circle class="ring-active" cx="48" cy="48" r="37" pathLength="100" transform="rotate(-90 48 48)" stroke="url(#wallet-8f2039-ring)" />
          </g>
        </g>
        <text class="accuracy-label" x="60" y="145">quarter</text>
        <text class="accuracy-note" x="60" y="166">low signal</text>
      </g>

      <g transform="translate(714 10)">
        <g transform="scale(1.25)">
          <use href="#avatar-shell" />
          <g mask="url(#acc-50)">
            <circle class="ring-active" cx="48" cy="48" r="37" pathLength="100" transform="rotate(-90 48 48)" stroke="url(#wallet-8f2039-ring)" />
          </g>
        </g>
        <text class="accuracy-label" x="60" y="145">half</text>
        <text class="accuracy-note" x="60" y="166">balanced</text>
      </g>

      <g transform="translate(894 10)">
        <g transform="scale(1.25)">
          <use href="#avatar-shell" />
          <g mask="url(#acc-74)">
            <circle class="ring-active" cx="48" cy="48" r="37" pathLength="100" transform="rotate(-90 48 48)" stroke="url(#wallet-8f2039-ring)" />
          </g>
        </g>
        <text class="accuracy-label" x="60" y="145">logo C</text>
        <text class="accuracy-note" x="60" y="166">strong read</text>
      </g>

      <g transform="translate(1074 10)">
        <g transform="scale(1.25)">
          <use href="#avatar-shell" />
          <g mask="url(#acc-100)">
            <circle class="ring-active" cx="48" cy="48" r="37" pathLength="100" transform="rotate(-90 48 48)" stroke="url(#wallet-8f2039-ring)" />
          </g>
        </g>
        <text class="accuracy-label" x="60" y="145">full ring</text>
        <text class="accuracy-note" x="60" y="166">perfect</text>
      </g>
    </g>
  </g>

  <g transform="translate(72 940)">
    <rect class="panel-soft" x="0" y="0" width="1456" height="128" rx="18" />
    <text class="wallet" x="36" y="42">Small-size read</text>
    <text class="body" x="36" y="70">The center stays empty at every size; the continuous ring carries both identity and accuracy.</text>

    <g transform="translate(520 28)">
      <g transform="scale(0.35)">
        <use href="#avatar-shell" />
        <g mask="url(#acc-74)">
          <circle class="ring-active" cx="48" cy="48" r="37" pathLength="100" transform="rotate(-90 48 48)" stroke="url(#wallet-f71b44-ring)" />
        </g>
      </g>
      <text class="tiny" x="17" y="58" text-anchor="middle">24</text>
    </g>

    <g transform="translate(600 20)">
      <g transform="scale(0.5)">
        <use href="#avatar-shell" />
        <g mask="url(#acc-74)">
          <circle class="ring-active" cx="48" cy="48" r="37" pathLength="100" transform="rotate(-90 48 48)" stroke="url(#wallet-a7b3d2-ring)" />
        </g>
      </g>
      <text class="tiny" x="24" y="66" text-anchor="middle">32</text>
    </g>

    <g transform="translate(700 12)">
      <g transform="scale(0.67)">
        <use href="#avatar-shell" />
        <g mask="url(#acc-74)">
          <circle class="ring-active" cx="48" cy="48" r="37" pathLength="100" transform="rotate(-90 48 48)" stroke="url(#wallet-d54ee7-ring)" />
        </g>
      </g>
      <text class="tiny" x="32" y="78" text-anchor="middle">48</text>
    </g>

    <g transform="translate(830 0)">
      <g transform="scale(1)">
        <use href="#avatar-shell" />
        <g mask="url(#acc-74)">
          <circle class="ring-active" cx="48" cy="48" r="37" pathLength="100" transform="rotate(-90 48 48)" stroke="url(#wallet-8f2039-ring)" />
        </g>
      </g>
      <text class="tiny" x="48" y="110" text-anchor="middle">96</text>
    </g>

    <g transform="translate(1065 32)">
      <circle cx="0" cy="20" r="5" fill="#ffffff" opacity="0.28" />
      <text class="body" x="18" y="25">Optional faint rail keeps the zero state visible without adding an inner avatar mark.</text>
    </g>
  </g>
</svg>
